<svg width="24" height="14" viewBox="0 0 24 14" fill="none" xmlns="http://www.w3.org/2000/svg">
<path d="M23.6973 1.765C24.1011 1.36123 24.1011 0.706605 23.6973 0.302828C23.2936 -0.100949 22.6389 -0.100939 22.2352 0.302828L23.6973 1.765ZM12 12.0002L11.2689 12.7312L12 13.4623L12.7311 12.7312L12 12.0002ZM1.76483 0.302828C1.36106 -0.100939 0.706439 -0.100949 0.302662 0.302828C-0.101115 0.706605 -0.101104 1.36123 0.302662 1.765L1.76483 0.302828ZM22.2352 0.302828L11.2689 11.2691L12.7311 12.7312L23.6973 1.765L22.2352 0.302828ZM12.7311 11.2691L1.76483 0.302828L0.302662 1.765L11.2689 12.7312L12.7311 11.2691Z" fill="#5C4529"/>
</svg>
