<svg width="29" height="30" viewBox="0 0 29 30" fill="none" xmlns="http://www.w3.org/2000/svg">
<path d="M28.3987 12.7714C28.3987 12.1789 27.9184 11.6986 27.3259 11.6986C26.7334 11.6986 26.2531 12.1789 26.2531 12.7714H28.3987ZM16.2188 3.74693C16.8114 3.74693 17.2917 3.26661 17.2917 2.67409C17.2917 2.08158 16.8114 1.60125 16.2188 1.60125V3.74693ZM21.6041 27.8543H6.79467V30H21.6041V27.8543ZM2.14568 23.2053V8.39592H0V23.2053H2.14568ZM26.2531 12.7714V23.2053H28.3987V12.7714H26.2531ZM6.79467 3.74693H16.2188V1.60125H6.79467V3.74693ZM6.79467 27.8543C4.2271 27.8543 2.14568 25.7729 2.14568 23.2053H0C0 26.9579 3.04207 30 6.79467 30V27.8543ZM21.6041 30C25.3566 30 28.3987 26.9579 28.3987 23.2053H26.2531C26.2531 25.7729 24.1716 27.8543 21.6041 27.8543V30ZM2.14568 8.39592C2.14568 5.82835 4.22711 3.74693 6.79467 3.74693V1.60125C3.04207 1.60125 0 4.64332 0 8.39592H2.14568Z" fill="#123968"/>
<path d="M24.0008 0.295773C24.3951 -0.0985522 25.0345 -0.0985522 25.4288 0.295773L27.1102 1.97721C27.5046 2.37154 27.5046 3.01086 27.1102 3.40519L15.4744 15.041C15.4161 15.0993 15.3507 15.1504 15.28 15.1928L11.0763 17.715C10.175 18.2558 9.15022 17.231 9.691 16.3297L12.2132 12.126C12.2556 12.0553 12.3067 11.9899 12.365 11.9316L24.0008 0.295773Z" fill="#123968"/>
</svg>
