<svg width="24" height="24" viewBox="0 0 24 24" fill="none" xmlns="http://www.w3.org/2000/svg">
<path d="M21.4164 4.91677C21.7385 4.59459 21.7385 4.07223 21.4164 3.75005C21.0942 3.42787 20.5718 3.42787 20.2497 3.75005L21.4164 4.91677ZM3.74979 20.25C3.4276 20.5722 3.42761 21.0946 3.74979 21.4167C4.07197 21.7389 4.59432 21.7389 4.91651 21.4167L3.74979 20.25ZM20.2497 3.75005L3.74979 20.25L4.91651 21.4167L21.4164 4.91677L20.2497 3.75005Z" fill="black"/>
<path d="M19.0829 20.25C19.4051 20.5722 19.9275 20.5722 20.2497 20.25C20.5718 19.9279 20.5718 19.4055 20.2497 19.0833L19.0829 20.25ZM3.74979 2.58336C3.42761 2.26117 2.90526 2.26117 2.58308 2.58336C2.2609 2.90554 2.26089 3.42789 2.58308 3.75008L3.74979 2.58336ZM20.2497 19.0833L3.74979 2.58336L2.58308 3.75008L19.0829 20.25L20.2497 19.0833Z" fill="black"/>
</svg>
