<svg width="13" height="8" viewBox="0 0 13 8" fill="none" xmlns="http://www.w3.org/2000/svg">
<path d="M12.8359 0.971153C13.0546 0.748987 13.0546 0.388782 12.8359 0.166616C12.6172 -0.0555509 12.2626 -0.0555523 12.0439 0.166614L12.8359 0.971153ZM6.5 6.6029L6.10401 7.00517L6.5 7.40744L6.89599 7.00517L6.5 6.6029ZM0.9561 0.166614C0.737399 -0.0555523 0.382813 -0.0555509 0.164112 0.166616C-0.0545889 0.388782 -0.0545903 0.748987 0.16411 0.971153L0.9561 0.166614ZM12.0439 0.166614L6.10401 6.20064L6.89599 7.00517L12.8359 0.971153L12.0439 0.166614ZM6.89599 6.20064L0.9561 0.166614L0.16411 0.971153L6.10401 7.00517L6.89599 6.20064Z" fill="#311F09"/>
</svg>
